<svg version="1.1" id="Layer_1" xmlns="http://www.w3.org/2000/svg" xmlns:xlink="http://www.w3.org/1999/xlink" x="0px" y="0px"
	 width="100%" viewBox="0 0 1024 1024" enable-background="new 0 0 1024 1024" xml:space="preserve">
<path fill="#000000" opacity="1.000000" stroke="none" 
	d="
M604.000000,1025.000000 
	C402.666656,1025.000000 201.833328,1025.000000 1.000000,1025.000000 
	C1.000000,683.666687 1.000000,342.333344 1.000000,1.000000 
	C342.333344,1.000000 683.666687,1.000000 1025.000000,1.000000 
	C1025.000000,342.333344 1025.000000,683.666687 1025.000000,1025.000000 
	C884.833313,1025.000000 744.666687,1025.000000 604.000000,1025.000000 
M882.003662,548.488647 
	C881.344543,512.181152 880.643494,475.874390 880.037170,439.566040 
	C879.316772,396.425659 878.565369,353.285187 878.076965,310.141937 
	C877.942627,298.277496 872.979065,289.733765 862.798767,283.974640 
	C856.394226,280.351532 850.043701,276.631500 843.605713,273.069214 
	C826.587585,263.652740 809.667725,254.045441 792.445251,245.016830 
	C782.521545,239.814484 772.739258,243.848862 769.116638,254.410065 
	C767.601440,258.827484 767.181396,263.825195 767.243652,268.546143 
	C767.685425,302.025848 768.442444,335.501221 768.980347,368.979858 
	C769.595886,407.293488 770.128052,445.608551 770.625793,483.923920 
	C771.445923,547.061096 772.092041,610.201050 773.166809,673.333740 
	C773.281799,680.089050 770.616028,683.528076 765.325317,686.751343 
	C742.212158,700.832703 719.268677,715.192932 696.278625,729.476135 
	C641.168091,763.714966 586.014465,797.885193 531.032288,832.328979 
	C524.831055,836.213623 519.848755,835.977173 513.811035,832.396667 
	C435.699097,786.072021 357.605774,739.713501 279.198242,693.893066 
	C269.981506,688.506958 266.929993,682.447083 266.985474,672.147827 
	C267.350830,604.352051 267.154480,536.553223 267.126404,468.755432 
	C267.098633,401.670868 266.821259,334.584991 267.213257,267.502930 
	C267.290833,254.228867 254.063721,241.891724 238.416061,251.064133 
	C215.681366,264.390900 193.026291,277.854950 170.421921,291.401703 
	C161.348419,296.839447 156.025757,304.751770 155.998871,315.671844 
	C155.661652,452.638458 155.327850,589.605103 155.015930,726.571777 
	C155.011810,728.382629 155.143951,730.224182 155.481583,732.000305 
	C157.406509,742.126465 164.493896,748.037903 172.747818,752.997375 
	C209.330429,774.978516 245.882629,797.010376 282.485138,818.958313 
	C356.507111,863.344055 430.606812,907.600586 504.542114,952.130127 
	C517.387634,959.866760 529.081848,959.507446 541.710999,951.523071 
	C595.156372,917.733826 648.846436,884.331726 702.419922,850.745056 
	C758.639038,815.499817 814.806458,780.171875 871.049622,744.964844 
	C880.617249,738.975769 885.123596,730.508301 885.009277,719.366943 
	C884.946045,713.201782 885.011169,707.034668 884.895447,700.870789 
	C883.947937,650.407898 882.971436,599.945618 882.003662,548.488647 
M565.534790,641.036865 
	C553.127441,648.739746 540.713684,656.432190 528.316589,664.151489 
	C524.291443,666.657837 520.318298,668.648499 515.650513,665.437134 
	C513.260071,663.792603 510.620361,662.509766 508.090149,661.069092 
	C497.249084,654.895996 486.419342,648.702942 475.560944,642.560425 
	C467.512878,638.007690 459.412170,633.547974 451.362457,628.998108 
	C443.307068,624.445007 435.287323,619.828918 427.249146,615.245300 
	C423.424561,613.064392 421.947388,609.912842 421.923248,605.397278 
	C421.739868,571.095703 421.118622,536.795715 421.050140,502.494385 
	C420.894440,424.500488 421.006714,346.506073 420.875427,268.512115 
	C420.868805,264.581726 422.527649,262.333832 425.537048,260.515930 
	C434.889008,254.866562 444.263885,249.254791 453.585480,243.555786 
	C472.034149,232.276672 490.384338,220.834045 508.935089,209.726028 
	C513.296326,207.114563 517.708984,203.461075 523.654114,207.181854 
	C530.059387,211.190674 536.932251,214.444092 543.508057,218.190384 
	C568.413513,232.379150 593.270508,246.653000 618.166748,260.857880 
	C635.696533,270.859772 653.233948,280.848785 670.818542,290.753815 
	C682.790039,297.497101 694.696777,304.383850 706.932312,310.618042 
	C713.127808,313.774719 719.738953,313.683777 725.733093,309.033173 
	C731.430786,304.612579 733.040588,298.629517 732.946289,291.856567 
	C732.609802,267.696442 732.402954,243.533463 731.871033,219.377655 
	C731.661194,209.846405 727.590820,202.071106 719.128357,197.142914 
	C706.172363,189.597885 693.134705,182.192993 680.127197,174.736481 
	C662.825378,164.818237 645.522644,154.901337 628.213806,144.995300 
	C611.222656,135.271133 594.219788,125.567604 577.228760,115.843300 
	C562.069580,107.167366 546.826477,98.632576 531.795959,89.738922 
	C520.521240,83.067589 510.059143,84.303284 499.302338,91.097870 
	C481.118530,102.583786 462.707031,113.712082 444.313477,124.862358 
	C424.516998,136.863068 404.637543,148.727036 384.782288,160.630630 
	C362.166718,174.189087 339.550812,187.747162 316.908905,201.261597 
	C306.529297,207.457001 300.934204,216.214508 301.429352,228.611771 
	C301.755035,236.765778 301.774933,244.935837 301.769196,253.098587 
	C301.732788,304.922760 301.596802,356.746887 301.598206,408.571045 
	C301.599915,471.886566 301.684143,535.202087 301.776917,598.517578 
	C301.804260,617.179749 301.704773,635.849182 302.205475,654.500671 
	C302.459076,663.946533 306.501892,671.878845 315.051422,676.865967 
	C322.358490,681.128357 329.727570,685.284912 337.019531,689.572754 
	C363.045258,704.876526 389.026489,720.255981 415.068542,735.531799 
	C444.586578,752.846680 474.302826,769.830017 503.626343,787.467163 
	C516.320068,795.102112 527.832458,795.035461 540.256653,786.979675 
	C558.888550,774.898804 577.992310,763.545654 596.897400,751.886292 
	C617.076050,739.441528 637.255554,726.997925 657.437439,714.558411 
	C678.192688,701.765442 698.827148,688.769897 719.758057,676.270935 
	C731.243164,669.412537 737.119995,660.310791 736.807373,646.520264 
	C735.610474,593.728394 734.836731,540.926453 734.058777,488.126007 
	C733.909424,477.989899 730.186707,470.059601 721.420044,464.881653 
	C708.544678,457.276886 695.611267,449.765137 682.587463,442.417755 
	C657.957458,428.522705 633.253052,414.759369 608.564209,400.968872 
	C598.066895,395.105316 587.526917,389.318115 577.013306,383.483673 
	C564.874634,376.747375 552.892212,369.709686 540.561890,363.345367 
	C530.945190,358.381683 518.755676,364.349731 516.257690,374.841003 
	C515.426086,378.333557 515.023010,382.019440 515.054382,385.611450 
	C515.276001,410.914337 515.546387,436.218140 516.062378,461.516327 
	C516.228455,469.657562 519.131104,476.749725 526.584778,481.163361 
	C531.275940,483.941162 535.994263,486.675354 540.747375,489.345520 
	C561.957947,501.261078 582.980713,513.535583 604.503174,524.859680 
	C613.650635,529.672607 617.613953,535.588501 617.205627,546.110291 
	C616.463074,565.246826 616.845459,584.434937 617.109375,603.596619 
	C617.168640,607.902527 615.158020,610.737427 612.259338,612.775391 
	C607.688904,615.988708 602.542236,618.367859 597.763916,621.302673 
	C587.222778,627.776917 576.759338,634.377441 565.534790,641.036865 
z"/>
<path fill="#FDFDFD" opacity="1.000000" stroke="none" 
	d="
M882.003662,548.985901 
	C882.971436,599.945618 883.947937,650.407898 884.895447,700.870789 
	C885.011169,707.034668 884.946045,713.201782 885.009277,719.366943 
	C885.123596,730.508301 880.617249,738.975769 871.049622,744.964844 
	C814.806458,780.171875 758.639038,815.499817 702.419922,850.745056 
	C648.846436,884.331726 595.156372,917.733826 541.710999,951.523071 
	C529.081848,959.507446 517.387634,959.866760 504.542114,952.130127 
	C430.606812,907.600586 356.507111,863.344055 282.485138,818.958313 
	C245.882629,797.010376 209.330429,774.978516 172.747818,752.997375 
	C164.493896,748.037903 157.406509,742.126465 155.481583,732.000305 
	C155.143951,730.224182 155.011810,728.382629 155.015930,726.571777 
	C155.327850,589.605103 155.661652,452.638458 155.998871,315.671844 
	C156.025757,304.751770 161.348419,296.839447 170.421921,291.401703 
	C193.026291,277.854950 215.681366,264.390900 238.416061,251.064133 
	C254.063721,241.891724 267.290833,254.228867 267.213257,267.502930 
	C266.821259,334.584991 267.098633,401.670868 267.126404,468.755432 
	C267.154480,536.553223 267.350830,604.352051 266.985474,672.147827 
	C266.929993,682.447083 269.981506,688.506958 279.198242,693.893066 
	C357.605774,739.713501 435.699097,786.072021 513.811035,832.396667 
	C519.848755,835.977173 524.831055,836.213623 531.032288,832.328979 
	C586.014465,797.885193 641.168091,763.714966 696.278625,729.476135 
	C719.268677,715.192932 742.212158,700.832703 765.325317,686.751343 
	C770.616028,683.528076 773.281799,680.089050 773.166809,673.333740 
	C772.092041,610.201050 771.445923,547.061096 770.625793,483.923920 
	C770.128052,445.608551 769.595886,407.293488 768.980347,368.979858 
	C768.442444,335.501221 767.685425,302.025848 767.243652,268.546143 
	C767.181396,263.825195 767.601440,258.827484 769.116638,254.410065 
	C772.739258,243.848862 782.521545,239.814484 792.445251,245.016830 
	C809.667725,254.045441 826.587585,263.652740 843.605713,273.069214 
	C850.043701,276.631500 856.394226,280.351532 862.798767,283.974640 
	C872.979065,289.733765 877.942627,298.277496 878.076965,310.141937 
	C878.565369,353.285187 879.316772,396.425659 880.037170,439.566040 
	C880.643494,475.874390 881.344543,512.181152 882.003662,548.985901 
M247.492752,780.022461 
	C273.914398,796.009277 300.280823,812.088257 326.768768,827.964478 
	C389.629333,865.641724 452.553284,903.213135 515.430786,940.862183 
	C520.258972,943.753174 524.811340,944.049683 529.740417,940.963135 
	C559.636658,922.243103 589.618835,903.660339 619.529663,884.963623 
	C664.785217,856.675232 710.020203,828.353882 755.236816,800.003235 
	C791.048279,777.549622 826.767944,754.948914 862.663452,732.630798 
	C868.006836,729.308472 870.023499,725.079346 869.880615,719.113281 
	C869.298035,694.797852 868.768433,670.480896 868.327698,646.162537 
	C867.588013,605.350769 866.921997,564.537659 866.242126,523.724854 
	C865.642761,487.744415 865.055481,451.763702 864.483887,415.782776 
	C863.973145,383.633911 863.504272,351.484375 862.980164,319.335724 
	C862.915039,315.342468 862.478210,311.353027 862.474182,307.361572 
	C862.469055,302.289917 859.979187,299.323914 855.600220,296.930908 
	C834.082458,285.172028 812.715271,273.137634 791.256348,261.270416 
	C788.852661,259.941101 786.204468,259.053833 783.057251,257.697632 
	C783.057251,260.096008 783.038269,261.724854 783.060059,263.353180 
	C783.693604,310.660431 784.367371,357.967194 784.956238,405.275024 
	C785.397949,440.760498 785.636597,476.248688 786.134827,511.733276 
	C786.892700,565.709534 787.792236,619.683838 788.644287,673.658813 
	C788.782104,682.393494 786.099060,689.887451 779.058228,695.410583 
	C776.723694,697.242004 774.230652,698.891235 771.709473,700.462219 
	C714.820679,735.910522 657.926880,771.350708 601.012878,806.758484 
	C580.310425,819.638000 559.425537,832.229553 538.872925,845.342712 
	C527.957886,852.306885 517.507202,852.617676 506.539978,845.879089 
	C497.561554,840.362671 488.395020,835.152954 479.326599,829.782349 
	C432.685303,802.160461 386.048706,774.530701 339.410553,746.903503 
	C315.299988,732.621033 291.207550,718.307983 267.070953,704.069641 
	C256.836731,698.032471 251.859314,689.574951 251.877136,677.306702 
	C252.068893,545.315247 251.998077,413.323334 251.989868,281.331543 
	C251.989624,277.168182 251.963821,273.002258 251.818100,268.842133 
	C251.632858,263.554382 250.306381,262.798889 245.321945,264.989288 
	C244.410934,265.389618 243.521011,265.851501 242.661819,266.354156 
	C220.761108,279.166626 198.895142,292.038940 176.944962,304.766022 
	C172.512527,307.335999 170.909943,310.987793 170.987808,315.867737 
	C171.120667,324.194061 171.131073,332.523224 171.108994,340.850983 
	C170.771057,468.322968 170.462509,595.795105 169.962585,723.266479 
	C169.933105,730.783142 172.570740,735.410950 179.090302,739.212158 
	C201.818222,752.463745 224.248260,766.226379 247.492752,780.022461 
z"/>
<path fill="#FC0000" opacity="1.000000" stroke="none" 
	d="
M565.899475,640.981689 
	C576.759338,634.377441 587.222778,627.776917 597.763916,621.302673 
	C602.542236,618.367859 607.688904,615.988708 612.259338,612.775391 
	C615.158020,610.737427 617.168640,607.902527 617.109375,603.596619 
	C616.845459,584.434937 616.463074,565.246826 617.205627,546.110291 
	C617.613953,535.588501 613.650635,529.672607 604.503174,524.859680 
	C582.980713,513.535583 561.957947,501.261078 540.747375,489.345520 
	C535.994263,486.675354 531.275940,483.941162 526.584778,481.163361 
	C519.131104,476.749725 516.228455,469.657562 516.062378,461.516327 
	C515.546387,436.218140 515.276001,410.914337 515.054382,385.611450 
	C515.023010,382.019440 515.426086,378.333557 516.257690,374.841003 
	C518.755676,364.349731 530.945190,358.381683 540.561890,363.345367 
	C552.892212,369.709686 564.874634,376.747375 577.013306,383.483673 
	C587.526917,389.318115 598.066895,395.105316 608.564209,400.968872 
	C633.253052,414.759369 657.957458,428.522705 682.587463,442.417755 
	C695.611267,449.765137 708.544678,457.276886 721.420044,464.881653 
	C730.186707,470.059601 733.909424,477.989899 734.058777,488.126007 
	C734.836731,540.926453 735.610474,593.728394 736.807373,646.520264 
	C737.119995,660.310791 731.243164,669.412537 719.758057,676.270935 
	C698.827148,688.769897 678.192688,701.765442 657.437439,714.558411 
	C637.255554,726.997925 617.076050,739.441528 596.897400,751.886292 
	C577.992310,763.545654 558.888550,774.898804 540.256653,786.979675 
	C527.832458,795.035461 516.320068,795.102112 503.626343,787.467163 
	C474.302826,769.830017 444.586578,752.846680 415.068542,735.531799 
	C389.026489,720.255981 363.045258,704.876526 337.019531,689.572754 
	C329.727570,685.284912 322.358490,681.128357 315.051422,676.865967 
	C306.501892,671.878845 302.459076,663.946533 302.205475,654.500671 
	C301.704773,635.849182 301.804260,617.179749 301.776917,598.517578 
	C301.684143,535.202087 301.599915,471.886566 301.598206,408.571045 
	C301.596802,356.746887 301.732788,304.922760 301.769196,253.098587 
	C301.774933,244.935837 301.755035,236.765778 301.429352,228.611771 
	C300.934204,216.214508 306.529297,207.457001 316.908905,201.261597 
	C339.550812,187.747162 362.166718,174.189087 384.782288,160.630630 
	C404.637543,148.727036 424.516998,136.863068 444.313477,124.862358 
	C462.707031,113.712082 481.118530,102.583786 499.302338,91.097870 
	C510.059143,84.303284 520.521240,83.067589 531.795959,89.738922 
	C546.826477,98.632576 562.069580,107.167366 577.228760,115.843300 
	C594.219788,125.567604 611.222656,135.271133 628.213806,144.995300 
	C645.522644,154.901337 662.825378,164.818237 680.127197,174.736481 
	C693.134705,182.192993 706.172363,189.597885 719.128357,197.142914 
	C727.590820,202.071106 731.661194,209.846405 731.871033,219.377655 
	C732.402954,243.533463 732.609802,267.696442 732.946289,291.856567 
	C733.040588,298.629517 731.430786,304.612579 725.733093,309.033173 
	C719.738953,313.683777 713.127808,313.774719 706.932312,310.618042 
	C694.696777,304.383850 682.790039,297.497101 670.818542,290.753815 
	C653.233948,280.848785 635.696533,270.859772 618.166748,260.857880 
	C593.270508,246.653000 568.413513,232.379150 543.508057,218.190384 
	C536.932251,214.444092 530.059387,211.190674 523.654114,207.181854 
	C517.708984,203.461075 513.296326,207.114563 508.935089,209.726028 
	C490.384338,220.834045 472.034149,232.276672 453.585480,243.555786 
	C444.263885,249.254791 434.889008,254.866562 425.537048,260.515930 
	C422.527649,262.333832 420.868805,264.581726 420.875427,268.512115 
	C421.006714,346.506073 420.894440,424.500488 421.050140,502.494385 
	C421.118622,536.795715 421.739868,571.095703 421.923248,605.397278 
	C421.947388,609.912842 423.424561,613.064392 427.249146,615.245300 
	C435.287323,619.828918 443.307068,624.445007 451.362457,628.998108 
	C459.412170,633.547974 467.512878,638.007690 475.560944,642.560425 
	C486.419342,648.702942 497.249084,654.895996 508.090149,661.069092 
	C510.620361,662.509766 513.260071,663.792603 515.650513,665.437134 
	C520.318298,668.648499 524.291443,666.657837 528.316589,664.151489 
	C540.713684,656.432190 553.127441,648.739746 565.899475,640.981689 
M574.940186,490.530396 
	C588.648621,498.101501 602.363220,505.661285 616.063232,513.247620 
	C625.112488,518.258545 631.635376,525.295532 631.882935,536.132263 
	C632.396606,558.617493 632.735352,581.114929 632.532654,603.601868 
	C632.488586,608.486389 631.149109,614.447754 628.134155,617.966187 
	C623.415222,623.473083 617.102356,627.867432 610.864075,631.774048 
	C587.319580,646.518005 563.473999,660.780334 539.864441,675.421875 
	C529.905884,681.597717 520.010193,686.233459 508.413940,679.640625 
	C496.189819,672.690857 483.884796,665.883362 471.660645,658.933594 
	C455.979858,650.018616 440.459503,640.814514 424.652679,632.130615 
	C412.406006,625.402649 405.817841,616.232239 405.853760,601.509460 
	C406.010712,537.184448 405.512085,472.858032 405.306427,408.531921 
	C405.157776,362.035187 405.142548,315.537964 404.952362,269.041443 
	C404.917786,260.587738 407.832428,253.364929 414.774750,248.942642 
	C434.087555,236.640274 453.785126,224.942459 473.317596,212.984344 
	C483.099640,206.995605 492.779785,200.836746 502.641693,194.983414 
	C510.979767,190.034546 519.436035,186.921722 529.091858,192.444000 
	C547.114136,202.751129 565.460938,212.489838 583.516296,222.740601 
	C605.595642,235.275955 627.473877,248.165131 649.514160,260.770050 
	C670.159851,272.577454 690.890442,284.236755 711.632507,295.874268 
	C713.055359,296.672607 714.885742,296.744568 717.018250,297.277130 
	C717.018250,295.368042 717.031982,294.219025 717.016296,293.070404 
	C716.677368,268.271667 716.470642,243.469269 715.794373,218.679703 
	C715.723022,216.062653 713.434021,212.814163 711.215149,211.098511 
	C707.185120,207.982376 702.436218,205.795013 697.983643,203.226425 
	C659.787170,181.191940 621.640808,159.069962 583.372314,137.161438 
	C562.993408,125.494644 542.372742,114.250809 521.935120,102.685448 
	C518.255371,100.603127 515.057678,100.369308 511.359650,102.598038 
	C485.104065,118.421906 458.766998,134.110519 432.492065,149.902374 
	C410.383850,163.189941 388.331268,176.570007 366.240997,189.887466 
	C352.135040,198.391464 338.054413,206.939484 323.859497,215.292831 
	C318.902893,218.209656 316.869629,222.010025 316.904999,227.890625 
	C317.331909,298.855194 317.646179,369.820831 317.794800,440.786621 
	C317.941376,510.781403 317.952759,580.776917 317.756287,650.771362 
	C317.735779,658.076477 320.123505,662.669250 326.698059,665.726746 
	C332.075195,668.227295 337.149780,671.399048 342.278809,674.409058 
	C364.013641,687.164124 385.692841,700.014160 407.442719,712.743591 
	C425.504944,723.314819 443.656097,733.733887 461.733643,744.279053 
	C479.493164,754.638672 497.233124,765.032410 514.929138,775.500000 
	C519.639648,778.286377 523.708252,778.312744 528.558777,775.181946 
	C540.491272,767.479797 552.835999,760.419006 564.951904,752.997437 
	C581.108215,743.100952 597.226868,733.142273 613.321533,723.145691 
	C631.358398,711.942810 649.306946,700.597290 667.375305,689.445618 
	C683.408752,679.549805 699.522644,669.782898 715.671021,660.075500 
	C719.713684,657.645325 721.187927,654.331116 721.043457,649.729431 
	C720.636597,636.761108 720.434814,623.786133 720.196289,610.812927 
	C719.865784,592.838318 719.575745,574.862976 719.268066,556.887939 
	C718.880432,534.238525 718.274048,511.589355 718.245361,488.939484 
	C718.237305,482.619690 715.487793,479.206909 710.388245,476.458923 
	C700.040405,470.882751 689.798706,465.106995 679.568237,459.316315 
	C657.099792,446.598633 634.692993,433.771973 612.208984,421.082031 
	C593.628845,410.595428 574.979309,400.231659 556.349792,389.832764 
	C548.491699,385.446442 540.606079,381.109558 532.140869,376.422394 
	C531.647156,378.242615 531.050232,379.421967 531.047852,380.602509 
	C530.994873,406.934448 530.965698,433.266663 531.055176,459.598419 
	C531.067688,463.295593 531.912903,466.926453 535.606812,468.948853 
	C548.508789,476.012787 561.427551,483.046173 574.940186,490.530396 
z"/>
<path fill="#000000" opacity="1.000000" stroke="none" 
	d="
M247.142151,779.908569 
	C224.248260,766.226379 201.818222,752.463745 179.090302,739.212158 
	C172.570740,735.410950 169.933105,730.783142 169.962585,723.266479 
	C170.462509,595.795105 170.771057,468.322968 171.108994,340.850983 
	C171.131073,332.523224 171.120667,324.194061 170.987808,315.867737 
	C170.909943,310.987793 172.512527,307.335999 176.944962,304.766022 
	C198.895142,292.038940 220.761108,279.166626 242.661819,266.354156 
	C243.521011,265.851501 244.410934,265.389618 245.321945,264.989288 
	C250.306381,262.798889 251.632858,263.554382 251.818100,268.842133 
	C251.963821,273.002258 251.989624,277.168182 251.989868,281.331543 
	C251.998077,413.323334 252.068893,545.315247 251.877136,677.306702 
	C251.859314,689.574951 256.836731,698.032471 267.070953,704.069641 
	C291.207550,718.307983 315.299988,732.621033 339.410553,746.903503 
	C386.048706,774.530701 432.685303,802.160461 479.326599,829.782349 
	C488.395020,835.152954 497.561554,840.362671 506.539978,845.879089 
	C517.507202,852.617676 527.957886,852.306885 538.872925,845.342712 
	C559.425537,832.229553 580.310425,819.638000 601.012878,806.758484 
	C657.926880,771.350708 714.820679,735.910522 771.709473,700.462219 
	C774.230652,698.891235 776.723694,697.242004 779.058228,695.410583 
	C786.099060,689.887451 788.782104,682.393494 788.644287,673.658813 
	C787.792236,619.683838 786.892700,565.709534 786.134827,511.733276 
	C785.636597,476.248688 785.397949,440.760498 784.956238,405.275024 
	C784.367371,357.967194 783.693604,310.660431 783.060059,263.353180 
	C783.038269,261.724854 783.057251,260.096008 783.057251,257.697632 
	C786.204468,259.053833 788.852661,259.941101 791.256348,261.270416 
	C812.715271,273.137634 834.082458,285.172028 855.600220,296.930908 
	C859.979187,299.323914 862.469055,302.289917 862.474182,307.361572 
	C862.478210,311.353027 862.915039,315.342468 862.980164,319.335724 
	C863.504272,351.484375 863.973145,383.633911 864.483887,415.782776 
	C865.055481,451.763702 865.642761,487.744415 866.242126,523.724854 
	C866.921997,564.537659 867.588013,605.350769 868.327698,646.162537 
	C868.768433,670.480896 869.298035,694.797852 869.880615,719.113281 
	C870.023499,725.079346 868.006836,729.308472 862.663452,732.630798 
	C826.767944,754.948914 791.048279,777.549622 755.236816,800.003235 
	C710.020203,828.353882 664.785217,856.675232 619.529663,884.963623 
	C589.618835,903.660339 559.636658,922.243103 529.740417,940.963135 
	C524.811340,944.049683 520.258972,943.753174 515.430786,940.862183 
	C452.553284,903.213135 389.629333,865.641724 326.768768,827.964478 
	C300.280823,812.088257 273.914398,796.009277 247.142151,779.908569 
z"/>
<path fill="#000000" opacity="1.000000" stroke="none" 
	d="
M574.640015,490.310791 
	C561.427551,483.046173 548.508789,476.012787 535.606812,468.948853 
	C531.912903,466.926453 531.067688,463.295593 531.055176,459.598419 
	C530.965698,433.266663 530.994873,406.934448 531.047852,380.602509 
	C531.050232,379.421967 531.647156,378.242615 532.140869,376.422394 
	C540.606079,381.109558 548.491699,385.446442 556.349792,389.832764 
	C574.979309,400.231659 593.628845,410.595428 612.208984,421.082031 
	C634.692993,433.771973 657.099792,446.598633 679.568237,459.316315 
	C689.798706,465.106995 700.040405,470.882751 710.388245,476.458923 
	C715.487793,479.206909 718.237305,482.619690 718.245361,488.939484 
	C718.274048,511.589355 718.880432,534.238525 719.268066,556.887939 
	C719.575745,574.862976 719.865784,592.838318 720.196289,610.812927 
	C720.434814,623.786133 720.636597,636.761108 721.043457,649.729431 
	C721.187927,654.331116 719.713684,657.645325 715.671021,660.075500 
	C699.522644,669.782898 683.408752,679.549805 667.375305,689.445618 
	C649.306946,700.597290 631.358398,711.942810 613.321533,723.145691 
	C597.226868,733.142273 581.108215,743.100952 564.951904,752.997437 
	C552.835999,760.419006 540.491272,767.479797 528.558777,775.181946 
	C523.708252,778.312744 519.639648,778.286377 514.929138,775.500000 
	C497.233124,765.032410 479.493164,754.638672 461.733643,744.279053 
	C443.656097,733.733887 425.504944,723.314819 407.442719,712.743591 
	C385.692841,700.014160 364.013641,687.164124 342.278809,674.409058 
	C337.149780,671.399048 332.075195,668.227295 326.698059,665.726746 
	C320.123505,662.669250 317.735779,658.076477 317.756287,650.771362 
	C317.952759,580.776917 317.941376,510.781403 317.794800,440.786621 
	C317.646179,369.820831 317.331909,298.855194 316.904999,227.890625 
	C316.869629,222.010025 318.902893,218.209656 323.859497,215.292831 
	C338.054413,206.939484 352.135040,198.391464 366.240997,189.887466 
	C388.331268,176.570007 410.383850,163.189941 432.492065,149.902374 
	C458.766998,134.110519 485.104065,118.421906 511.359650,102.598038 
	C515.057678,100.369308 518.255371,100.603127 521.935120,102.685448 
	C542.372742,114.250809 562.993408,125.494644 583.372314,137.161438 
	C621.640808,159.069962 659.787170,181.191940 697.983643,203.226425 
	C702.436218,205.795013 707.185120,207.982376 711.215149,211.098511 
	C713.434021,212.814163 715.723022,216.062653 715.794373,218.679703 
	C716.470642,243.469269 716.677368,268.271667 717.016296,293.070404 
	C717.031982,294.219025 717.018250,295.368042 717.018250,297.277130 
	C714.885742,296.744568 713.055359,296.672607 711.632507,295.874268 
	C690.890442,284.236755 670.159851,272.577454 649.514160,260.770050 
	C627.473877,248.165131 605.595642,235.275955 583.516296,222.740601 
	C565.460938,212.489838 547.114136,202.751129 529.091858,192.444000 
	C519.436035,186.921722 510.979767,190.034546 502.641693,194.983414 
	C492.779785,200.836746 483.099640,206.995605 473.317596,212.984344 
	C453.785126,224.942459 434.087555,236.640274 414.774750,248.942642 
	C407.832428,253.364929 404.917786,260.587738 404.952362,269.041443 
	C405.142548,315.537964 405.157776,362.035187 405.306427,408.531921 
	C405.512085,472.858032 406.010712,537.184448 405.853760,601.509460 
	C405.817841,616.232239 412.406006,625.402649 424.652679,632.130615 
	C440.459503,640.814514 455.979858,650.018616 471.660645,658.933594 
	C483.884796,665.883362 496.189819,672.690857 508.413940,679.640625 
	C520.010193,686.233459 529.905884,681.597717 539.864441,675.421875 
	C563.473999,660.780334 587.319580,646.518005 610.864075,631.774048 
	C617.102356,627.867432 623.415222,623.473083 628.134155,617.966187 
	C631.149109,614.447754 632.488586,608.486389 632.532654,603.601868 
	C632.735352,581.114929 632.396606,558.617493 631.882935,536.132263 
	C631.635376,525.295532 625.112488,518.258545 616.063232,513.247620 
	C602.363220,505.661285 588.648621,498.101501 574.640015,490.310791 
z"/>
</svg>